<svg xmlns="http://www.w3.org/2000/svg" viewBox="0 0 514.5 343">
	<defs>
		<style>.a{opacity:0.6;}.b{fill:#2196f3;}.c{fill:#03a9f4;}.d{fill:#fff;}</style>
	</defs>
	<title>vennDiagram</title>
	<g class="a">
		<circle class="b" cx="343" cy="171.5" r="171.5"/>
	</g>
	<g class="a">
		<circle class="c" cx="171.5" cy="171.5" r="171.5"/>
	</g>
	<path class="b" d="M511,124a170.7,170.7,0,0,0-85.75,22.95,171.55,171.55,0,0,1,0,297.1A171.51,171.51,0,1,0,511,124Z" transform="translate(-168 -124)"/>
	<path class="c" d="M339.5,295.5a171.43,171.43,0,0,1,85.75-148.55,171.5,171.5,0,1,0,0,297.1A171.43,171.43,0,0,1,339.5,295.5Z" transform="translate(-168 -124)"/>
	<path class="d" d="M390.48,295.49h2.07V297h-2.07v3.47h-1.91V297h-6.8v-1.12l6.69-10.35h2Zm-6.55,0h4.65v-7.32l-.23.41Z" transform="translate(-168 -124)"/>
	<path class="d" d="M403.62,294.13a8.68,8.68,0,0,1-1.14,5,4.73,4.73,0,0,1-7.1,0,8.24,8.24,0,0,1-1.19-4.73v-2.53a8.48,8.48,0,0,1,1.14-4.89,4.81,4.81,0,0,1,7.12-.06,8.19,8.19,0,0,1,1.17,4.76Zm-1.9-2.59a7,7,0,0,0-.68-3.51,2.33,2.33,0,0,0-2.14-1.1,2.3,2.3,0,0,0-2.12,1.1,6.78,6.78,0,0,0-.69,3.37v3a7.06,7.06,0,0,0,.7,3.57,2.32,2.32,0,0,0,2.13,1.15,2.29,2.29,0,0,0,2.09-1.09,6.82,6.82,0,0,0,.71-3.43Z" transform="translate(-168 -124)"/>
	<path class="d" d="M414.06,295.49h2.07V297h-2.07v3.47h-1.91V297h-6.8v-1.12L412,285.57h2Zm-6.55,0h4.65v-7.32l-.23.41Z" transform="translate(-168 -124)"/>
	<path class="d" d="M425.51,294.66v5.84h-2V285.57H429a5.53,5.53,0,0,1,3.84,1.25,4.24,4.24,0,0,1,1.39,3.31,4.19,4.19,0,0,1-1.36,3.35,5.78,5.78,0,0,1-3.89,1.17Zm0-1.61H429a3.54,3.54,0,0,0,2.42-.74,2.72,2.72,0,0,0,.84-2.15,2.81,2.81,0,0,0-.84-2.14,3.32,3.32,0,0,0-2.31-.83h-3.65Z" transform="translate(-168 -124)"/>
	<path class="d" d="M443.23,300.5a4,4,0,0,1-.27-1.17,4.23,4.23,0,0,1-3.16,1.37,3.91,3.91,0,0,1-2.69-.93,3,3,0,0,1-1.05-2.35,3.13,3.13,0,0,1,1.32-2.69,6.21,6.21,0,0,1,3.71-1h1.85v-.87a2.13,2.13,0,0,0-.59-1.58,2.39,2.39,0,0,0-1.75-.59,2.77,2.77,0,0,0-1.7.51,1.51,1.51,0,0,0-.69,1.24h-1.91a2.62,2.62,0,0,1,.59-1.6,4,4,0,0,1,1.6-1.23,5.38,5.38,0,0,1,2.22-.45,4.38,4.38,0,0,1,3,1,3.46,3.46,0,0,1,1.13,2.64v5.11a6.24,6.24,0,0,0,.39,2.43v.16Zm-3.15-1.45a3.33,3.33,0,0,0,1.69-.46,2.79,2.79,0,0,0,1.16-1.2v-2.28h-1.49q-3.49,0-3.49,2a1.73,1.73,0,0,0,.59,1.39A2.29,2.29,0,0,0,440.08,299.05Z" transform="translate(-168 -124)"/>
	<path class="d" d="M447.35,294.86a6.52,6.52,0,0,1,1.2-4.13,4.14,4.14,0,0,1,6.35-.1l.09-1.23h1.73v10.83a4.51,4.51,0,0,1-1.28,3.39,4.71,4.71,0,0,1-3.43,1.24,5.71,5.71,0,0,1-2.35-.51,4,4,0,0,1-1.75-1.4l1-1.14a3.71,3.71,0,0,0,3,1.51,2.91,2.91,0,0,0,2.16-.78,3,3,0,0,0,.77-2.2v-1a3.9,3.9,0,0,1-3.11,1.31,3.79,3.79,0,0,1-3.15-1.57A6.86,6.86,0,0,1,447.35,294.86Zm1.91.22A5,5,0,0,0,450,298a2.5,2.5,0,0,0,2.15,1.07,2.78,2.78,0,0,0,2.64-1.63V292.4a2.81,2.81,0,0,0-2.61-1.59,2.52,2.52,0,0,0-2.16,1.08A5.42,5.42,0,0,0,449.25,295.08Z" transform="translate(-168 -124)"/>
	<path class="d" d="M464.18,300.71a4.85,4.85,0,0,1-3.67-1.48,5.5,5.5,0,0,1-1.42-4v-.35a6.66,6.66,0,0,1,.63-2.95,4.92,4.92,0,0,1,1.76-2,4.44,4.44,0,0,1,2.46-.73,4.16,4.16,0,0,1,3.36,1.42,6.17,6.17,0,0,1,1.2,4.08v.79H461a3.94,3.94,0,0,0,1,2.65,3,3,0,0,0,2.33,1,3.3,3.3,0,0,0,1.7-.41,4.27,4.27,0,0,0,1.22-1.09l1.16.9A4.66,4.66,0,0,1,464.18,300.71Zm-.24-9.95a2.53,2.53,0,0,0-1.93.84,4.06,4.06,0,0,0-1,2.34h5.56v-.14a3.61,3.61,0,0,0-.78-2.24A2.38,2.38,0,0,0,463.95,290.76Z" transform="translate(-168 -124)"/>
	<path class="d" d="M222.87,286.47l.25,1.69.36-1.52L226,277.7h1.42l2.47,8.93.35,1.55.27-1.72,2-8.75h1.7l-3.1,12.8h-1.54l-2.64-9.33-.2-1-.2,1-2.73,9.33h-1.54l-3.09-12.8h1.69Z" transform="translate(-168 -124)"/>
	<path class="d" d="M239.77,290.68a4.16,4.16,0,0,1-3.15-1.27,4.72,4.72,0,0,1-1.21-3.4v-.3a5.7,5.7,0,0,1,.54-2.53,4.2,4.2,0,0,1,1.51-1.74,3.79,3.79,0,0,1,2.1-.63,3.56,3.56,0,0,1,2.88,1.22,5.29,5.29,0,0,1,1,3.5v.68H237a3.38,3.38,0,0,0,.82,2.27,2.58,2.58,0,0,0,2,.87,2.83,2.83,0,0,0,1.46-.35,3.67,3.67,0,0,0,1-.93l1,.77A4,4,0,0,1,239.77,290.68Zm-.2-8.53a2.17,2.17,0,0,0-1.65.72,3.48,3.48,0,0,0-.83,2h4.76v-.12a3.09,3.09,0,0,0-.67-1.92A2,2,0,0,0,239.57,282.15Z" transform="translate(-168 -124)"/>
	<path class="d" d="M250.07,290.5V277.7h4.18a4.86,4.86,0,0,1,3.13.86,3.1,3.1,0,0,1,1.05,2.55,2.6,2.6,0,0,1-.51,1.59,3.3,3.3,0,0,1-1.39,1.07,3,3,0,0,1,1.64,1.1,3.16,3.16,0,0,1,.6,1.94,3.42,3.42,0,0,1-1.12,2.71,4.62,4.62,0,0,1-3.16,1Zm1.69-7.34h2.55a2.67,2.67,0,0,0,1.77-.55,1.86,1.86,0,0,0,.66-1.51,1.83,1.83,0,0,0-.62-1.54,3,3,0,0,0-1.87-.48h-2.5Zm0,1.35v4.61h2.79a2.69,2.69,0,0,0,1.86-.61,2.15,2.15,0,0,0,.68-1.68q0-2.31-2.51-2.31Z" transform="translate(-168 -124)"/>
	<path class="d" d="M265.62,282.45a4.87,4.87,0,0,0-.8-.06,2.14,2.14,0,0,0-2.17,1.36v6.75H261V281h1.58l0,1.1a2.53,2.53,0,0,1,2.27-1.27,1.66,1.66,0,0,1,.72.12Z" transform="translate(-168 -124)"/>
	<path class="d" d="M266.5,285.66a5.62,5.62,0,0,1,.55-2.51,4.1,4.1,0,0,1,1.53-1.72,4.16,4.16,0,0,1,2.24-.61,4,4,0,0,1,3.14,1.34,5.17,5.17,0,0,1,1.2,3.58v.11a5.66,5.66,0,0,1-.53,2.49,4,4,0,0,1-1.52,1.72,4.21,4.21,0,0,1-2.27.62,4,4,0,0,1-3.13-1.34,5.15,5.15,0,0,1-1.2-3.56Zm1.63.19a4.07,4.07,0,0,0,.73,2.54,2.49,2.49,0,0,0,3.93,0,4.45,4.45,0,0,0,.73-2.72,4.06,4.06,0,0,0-.74-2.54,2.36,2.36,0,0,0-2-1,2.33,2.33,0,0,0-1.94,1A4.42,4.42,0,0,0,268.14,285.85Z" transform="translate(-168 -124)"/>
	<path class="d" d="M279.85,286.1l-1,1.06v3.34h-1.63V277h1.63v8.17l.87-1,3-3.13h2l-3.7,4,4.13,5.54h-1.91Z" transform="translate(-168 -124)"/>
	<path class="d" d="M290.27,290.68a4.16,4.16,0,0,1-3.15-1.27,4.72,4.72,0,0,1-1.21-3.4v-.3a5.7,5.7,0,0,1,.54-2.53,4.2,4.2,0,0,1,1.51-1.74,3.79,3.79,0,0,1,2.1-.63A3.56,3.56,0,0,1,293,282a5.29,5.29,0,0,1,1,3.5v.68h-6.44a3.38,3.38,0,0,0,.82,2.27,2.58,2.58,0,0,0,2,.87,2.83,2.83,0,0,0,1.46-.35,3.67,3.67,0,0,0,1-.93l1,.77A4,4,0,0,1,290.27,290.68Zm-.2-8.53a2.17,2.17,0,0,0-1.65.72,3.48,3.48,0,0,0-.83,2h4.76v-.12a3.09,3.09,0,0,0-.67-1.92A2,2,0,0,0,290.07,282.15Z" transform="translate(-168 -124)"/>
	<path class="d" d="M218.66,306.4a7.93,7.93,0,0,1-3.16-1.53,2.93,2.93,0,0,1-1-2.25,3.1,3.1,0,0,1,1.21-2.5,4.8,4.8,0,0,1,3.14-1,5.24,5.24,0,0,1,2.35.51,3.87,3.87,0,0,1,1.6,1.41,3.6,3.6,0,0,1,.57,2h-1.7a2.34,2.34,0,0,0-.74-1.83,3,3,0,0,0-2.08-.67,3.08,3.08,0,0,0-1.95.55,1.84,1.84,0,0,0-.7,1.53,1.65,1.65,0,0,0,.66,1.32,6.49,6.49,0,0,0,2.26,1,10.5,10.5,0,0,1,2.5,1,3.79,3.79,0,0,1,1.34,1.26,3.22,3.22,0,0,1,.44,1.7,3,3,0,0,1-1.21,2.49,5.17,5.17,0,0,1-3.24.94,6,6,0,0,1-2.46-.5,4.14,4.14,0,0,1-1.76-1.38,3.38,3.38,0,0,1-.62-2h1.7a2.2,2.2,0,0,0,.86,1.83,3.61,3.61,0,0,0,2.29.67,3.32,3.32,0,0,0,2-.54,1.77,1.77,0,0,0,.71-1.49,1.74,1.74,0,0,0-.66-1.45A7.6,7.6,0,0,0,218.66,306.4Z" transform="translate(-168 -124)"/>
	<path class="d" d="M224.88,307.26a5.62,5.62,0,0,1,.55-2.51A4.1,4.1,0,0,1,227,303a4.16,4.16,0,0,1,2.24-.61,4,4,0,0,1,3.14,1.35,5.17,5.17,0,0,1,1.2,3.58v.12a5.66,5.66,0,0,1-.53,2.49,4,4,0,0,1-1.52,1.72,4.21,4.21,0,0,1-2.27.62,4,4,0,0,1-3.13-1.34,5.15,5.15,0,0,1-1.2-3.56Zm1.63.19a4.07,4.07,0,0,0,.73,2.54,2.49,2.49,0,0,0,3.93,0,4.45,4.45,0,0,0,.73-2.72,4.06,4.06,0,0,0-.74-2.54,2.36,2.36,0,0,0-2-1,2.34,2.34,0,0,0-1.94,1A4.42,4.42,0,0,0,226.51,307.45Z" transform="translate(-168 -124)"/>
	<path class="d" d="M237.1,302.59l0,1.05a3.51,3.51,0,0,1,2.82-1.23,2.72,2.72,0,0,1,2.72,1.53,3.6,3.6,0,0,1,1.23-1.11,3.65,3.65,0,0,1,1.8-.42q3.13,0,3.18,3.31v6.37h-1.63v-6.28a2.18,2.18,0,0,0-.47-1.52,2.05,2.05,0,0,0-1.56-.5,2.16,2.16,0,0,0-1.5.54,2.19,2.19,0,0,0-.69,1.45v6.31h-1.63v-6.23a1.81,1.81,0,0,0-2-2.07,2.17,2.17,0,0,0-2.19,1.36v6.94h-1.63v-9.51Z" transform="translate(-168 -124)"/>
	<path class="d" d="M255.3,312.28a4.15,4.15,0,0,1-3.15-1.27,4.71,4.71,0,0,1-1.21-3.4v-.3a5.71,5.71,0,0,1,.54-2.53A4.22,4.22,0,0,1,253,303a3.8,3.8,0,0,1,2.1-.63,3.56,3.56,0,0,1,2.88,1.22,5.29,5.29,0,0,1,1,3.5v.68h-6.44a3.38,3.38,0,0,0,.82,2.27,2.58,2.58,0,0,0,2,.87,2.83,2.83,0,0,0,1.46-.35,3.67,3.67,0,0,0,1-.93l1,.77A4,4,0,0,1,255.3,312.28Zm-.2-8.53a2.17,2.17,0,0,0-1.65.72,3.48,3.48,0,0,0-.83,2h4.76v-.12a3.1,3.1,0,0,0-.67-1.92A2,2,0,0,0,255.1,303.75Z" transform="translate(-168 -124)"/>
	<path class="d" d="M263.09,300.29v2.3h1.78v1.26h-1.78v5.9a1.32,1.32,0,0,0,.24.86,1,1,0,0,0,.81.29,3.94,3.94,0,0,0,.77-.11v1.31a4.75,4.75,0,0,1-1.25.17,2,2,0,0,1-1.64-.66,2.83,2.83,0,0,1-.55-1.87v-5.9h-1.73v-1.26h1.73v-2.3Z" transform="translate(-168 -124)"/>
	<path class="d" d="M268.39,303.74a3.46,3.46,0,0,1,2.81-1.33q3,0,3,3.4v6.28h-1.63v-6.29a2.19,2.19,0,0,0-.47-1.52,1.88,1.88,0,0,0-1.44-.49,2.35,2.35,0,0,0-1.39.42,2.86,2.86,0,0,0-.93,1.11v6.78h-1.63V298.6h1.63Z" transform="translate(-168 -124)"/>
	<path class="d" d="M276.69,300.07a1,1,0,0,1,.24-.67.91.91,0,0,1,.72-.27.92.92,0,0,1,.72.27,1,1,0,0,1,.25.67.93.93,0,0,1-.25.66.94.94,0,0,1-.72.26.92.92,0,0,1-.72-.26A.94.94,0,0,1,276.69,300.07Zm1.76,12h-1.63v-9.51h1.63Z" transform="translate(-168 -124)"/>
	<path class="d" d="M282.59,302.59l.05,1.2a3.47,3.47,0,0,1,2.85-1.37q3,0,3,3.4v6.28H286.9v-6.29a2.19,2.19,0,0,0-.47-1.52,1.88,1.88,0,0,0-1.44-.49,2.35,2.35,0,0,0-1.39.42,2.86,2.86,0,0,0-.93,1.11v6.78H281v-9.51Z" transform="translate(-168 -124)"/>
	<path class="d" d="M290.59,307.27a5.59,5.59,0,0,1,1-3.54,3.54,3.54,0,0,1,5.44-.08l.08-1.05h1.49v9.28a3.87,3.87,0,0,1-1.09,2.91,4,4,0,0,1-2.94,1.06,4.89,4.89,0,0,1-2-.44,3.46,3.46,0,0,1-1.5-1.2l.84-1a3.18,3.18,0,0,0,2.56,1.29,2.49,2.49,0,0,0,1.85-.67A2.55,2.55,0,0,0,297,312v-.82a3.34,3.34,0,0,1-2.66,1.13,3.25,3.25,0,0,1-2.7-1.34A5.88,5.88,0,0,1,290.59,307.27Zm1.63.19a4.26,4.26,0,0,0,.66,2.53,2.14,2.14,0,0,0,1.85.92,2.38,2.38,0,0,0,2.26-1.4v-4.34a2.41,2.41,0,0,0-2.24-1.36,2.16,2.16,0,0,0-1.85.92A4.65,4.65,0,0,0,292.23,307.45Z" transform="translate(-168 -124)"/>
	<path class="d" d="M561.72,284.13l3.34-6.42H567l-4.41,8v4.77h-1.69v-4.77l-4.41-8h1.93Z" transform="translate(-168 -124)"/>
	<path class="d" d="M567.37,285.66a5.63,5.63,0,0,1,.55-2.51,4.11,4.11,0,0,1,1.53-1.72,4.17,4.17,0,0,1,2.24-.61,4,4,0,0,1,3.14,1.34,5.17,5.17,0,0,1,1.2,3.58v.11a5.65,5.65,0,0,1-.53,2.49,4,4,0,0,1-1.52,1.72,4.21,4.21,0,0,1-2.27.62,4,4,0,0,1-3.13-1.34,5.15,5.15,0,0,1-1.2-3.56Zm1.63.19a4.06,4.06,0,0,0,.73,2.54,2.49,2.49,0,0,0,3.93,0,4.45,4.45,0,0,0,.73-2.72,4.07,4.07,0,0,0-.74-2.54,2.37,2.37,0,0,0-2-1,2.33,2.33,0,0,0-1.94,1A4.42,4.42,0,0,0,569,285.85Z" transform="translate(-168 -124)"/>
	<path class="d" d="M583.93,289.56a3.45,3.45,0,0,1-2.79,1.12,3,3,0,0,1-2.32-.88,3.83,3.83,0,0,1-.8-2.62V281h1.63v6.14q0,2.16,1.76,2.16a2.43,2.43,0,0,0,2.48-1.39V281h1.63v9.51H584Z" transform="translate(-168 -124)"/>
	<path class="d" d="M602.11,286.44a4.7,4.7,0,0,1-1.5,3.13,4.9,4.9,0,0,1-3.35,1.1,4.51,4.51,0,0,1-3.63-1.63,6.54,6.54,0,0,1-1.37-4.35v-1.23a7.31,7.31,0,0,1,.64-3.14,4.77,4.77,0,0,1,1.81-2.08,5,5,0,0,1,2.71-.73,4.62,4.62,0,0,1,3.27,1.14,4.76,4.76,0,0,1,1.43,3.15h-1.7a3.68,3.68,0,0,0-1-2.22,2.89,2.89,0,0,0-2.05-.69,3,3,0,0,0-2.54,1.2,5.48,5.48,0,0,0-.92,3.4v1.24a5.64,5.64,0,0,0,.87,3.32,2.81,2.81,0,0,0,2.43,1.23,3.24,3.24,0,0,0,2.16-.64,3.53,3.53,0,0,0,1-2.22Z" transform="translate(-168 -124)"/>
	<path class="d" d="M610,290.5a3.42,3.42,0,0,1-.23-1,3.63,3.63,0,0,1-2.71,1.18,3.36,3.36,0,0,1-2.31-.79,2.57,2.57,0,0,1-.9-2,2.68,2.68,0,0,1,1.13-2.31,5.31,5.31,0,0,1,3.18-.82h1.58V284a1.83,1.83,0,0,0-.51-1.36,2.05,2.05,0,0,0-1.5-.5,2.37,2.37,0,0,0-1.46.44,1.29,1.29,0,0,0-.59,1.06h-1.63a2.25,2.25,0,0,1,.5-1.37A3.46,3.46,0,0,1,606,281.2a4.62,4.62,0,0,1,1.9-.39,3.75,3.75,0,0,1,2.58.82,3,3,0,0,1,1,2.26v4.38a5.35,5.35,0,0,0,.33,2.08v.14Zm-2.7-1.24a2.86,2.86,0,0,0,1.45-.4,2.39,2.39,0,0,0,1-1v-2H608.5q-3,0-3,1.75a1.48,1.48,0,0,0,.51,1.2A2,2,0,0,0,607.33,289.26Z" transform="translate(-168 -124)"/>
	<path class="d" d="M615.49,281l.05,1.2a3.47,3.47,0,0,1,2.85-1.37q3,0,3,3.4v6.28H619.8v-6.29a2.18,2.18,0,0,0-.47-1.52,1.88,1.88,0,0,0-1.44-.49,2.35,2.35,0,0,0-1.39.42,2.86,2.86,0,0,0-.93,1.11v6.78h-1.63V281Z" transform="translate(-168 -124)"/>
	<path class="d" d="M623.29,281.31l-.92-.63a4.23,4.23,0,0,0,.84-2.41V277h1.61v1.14a4.34,4.34,0,0,1-1.53,3.16Z" transform="translate(-168 -124)"/>
	<path class="d" d="M629,278.69V281h1.78v1.26H629v5.91a1.32,1.32,0,0,0,.24.86,1,1,0,0,0,.81.29,3.94,3.94,0,0,0,.77-.11v1.31a4.75,4.75,0,0,1-1.25.17,2,2,0,0,1-1.64-.66,2.83,2.83,0,0,1-.55-1.87v-5.9h-1.73V281h1.73v-2.3Z" transform="translate(-168 -124)"/>
	<path class="d" d="M584.76,300.68h-4.11V312.1H579V300.68h-4.11V299.3h9.9Z" transform="translate(-168 -124)"/>
	<path class="d" d="M589.51,309.72l2.21-7.13h1.74l-3.82,11q-.89,2.37-2.82,2.37l-.31,0-.61-.11v-1.32l.44,0a2.16,2.16,0,0,0,1.29-.33,2.42,2.42,0,0,0,.76-1.22l.36-1-3.39-9.4h1.78Z" transform="translate(-168 -124)"/>
	<path class="d" d="M602.95,307.45a5.69,5.69,0,0,1-1,3.5,3.18,3.18,0,0,1-2.69,1.33,3.49,3.49,0,0,1-2.72-1.1v4.58h-1.63V302.59h1.49l.08,1.05a3.35,3.35,0,0,1,2.76-1.23,3.24,3.24,0,0,1,2.71,1.29,5.75,5.75,0,0,1,1,3.59Zm-1.62-.19a4.2,4.2,0,0,0-.69-2.54,2.21,2.21,0,0,0-1.88-.93,2.39,2.39,0,0,0-2.21,1.31v4.54a2.39,2.39,0,0,0,2.23,1.3,2.2,2.2,0,0,0,1.86-.93A4.59,4.59,0,0,0,601.32,307.27Z" transform="translate(-168 -124)"/>
	<path class="d" d="M609,312.28a4.15,4.15,0,0,1-3.15-1.27,4.71,4.71,0,0,1-1.21-3.4v-.3a5.71,5.71,0,0,1,.54-2.53,4.22,4.22,0,0,1,1.51-1.74,3.8,3.8,0,0,1,2.11-.63,3.56,3.56,0,0,1,2.88,1.22,5.29,5.29,0,0,1,1,3.5v.68h-6.44a3.38,3.38,0,0,0,.82,2.27,2.58,2.58,0,0,0,2,.87,2.83,2.83,0,0,0,1.46-.35,3.67,3.67,0,0,0,1-.93l1,.77A4,4,0,0,1,609,312.28Zm-.2-8.53a2.17,2.17,0,0,0-1.65.72,3.48,3.48,0,0,0-.83,2H611v-.12a3.1,3.1,0,0,0-.67-1.92A2,2,0,0,0,608.76,303.75Z" transform="translate(-168 -124)"/>
</svg>
